<svg xmlns="http://www.w3.org/2000/svg" width="512" height="512"><path fill="#B18263" d="M256.434 24.203c9.5 2.95 16.78 12.66 21.33 21.05 6.51 13.61 8.85 27.92 4.61 42.68-3.57 9.92-8.51 18.9-16.37 26.07h-2l1 34 10-4c3.16-.37 5.86-.58 9-.5.78.01 1.56.03 2.37.04 10.44.38 16.88 3.87 24.43 11.09 6.56 7.07 9.5 14.33 9.53 24.03.01.72.02 1.43.02 2.17.01 1.5.02 3 .02 4.5 0 2.29.04 4.58.08 6.88 0 1.46.01 2.92.01 4.39.01.68.03 1.36.04 2.07-.03 3.38-.29 5.06-2.41 7.76-2.27 1.7-3.29 2.11-6.09 2.07-.99.01-.99.01-2 .03-2.92-.78-4.1-2.23-6-4.53-.52-2.53-.52-2.53-.54-5.36-.04-1.55-.04-1.55-.07-3.14-.01-1.07-.01-2.15-.02-3.25 0-14.06 0-14.06-6.37-26.25-5.16-4.08-9.53-4.69-16.06-4.45-5.27.8-8.97 2.97-12.28 7.13-3.79 6.06-3.81 12.41-3.78 19.34v2.37c0 2.56.01 5.13.02 7.69v5.36l.03 14.05c.01 4.79.01 9.58.02 14.36.01 9.38.03 18.77.05 28.15 1-.43 1-.43 2.02-.86.89-.37 1.78-.73 2.69-1.11.88-.37 1.75-.73 2.65-1.11 3.91-1.37 7.52-1.53 11.64-1.42.78.01 1.56.03 2.37.04 10.44.38 16.88 3.87 24.43 11.09 6.56 7.07 9.5 14.33 9.53 24.03.01.72.02 1.43.02 2.17.01 1.5.02 3 .02 4.5 0 2.29.04 4.58.08 6.88 0 1.46.01 2.92.01 4.39l.04 2.07c-.03 3.38-.29 5.06-2.41 7.76-2.27 1.7-3.29 2.11-6.09 2.07-.99.01-.99.01-2 .03-2.92-.78-4.1-2.23-6-4.53-.52-2.53-.52-2.53-.54-5.36-.03-1.04-.05-2.07-.07-3.14-.01-1.07-.01-2.15-.02-3.25 0-14.06 0-14.06-6.37-26.25-5.16-4.08-9.53-4.69-16.06-4.45-5.27.8-8.97 2.97-12.28 7.13-3.71 5.93-3.81 12.19-3.87 18.97l-.03 2.25c-.03 2.44-.06 4.87-.08 7.31l-.06 5.08c-.06 4.45-.11 8.9-.16 13.35-.05 4.54-.1 9.09-.16 13.63-.1 8.91-.21 17.82-.3 26.73.6-.01 1.21-.01 1.83-.02.8 0 1.6-.01 2.43-.01.79-.01 1.58-.01 2.4-.02 21.66.41 41.87 10.88 58.14 24.38 4.8 3.64 10 5.32 16.08 5 8.02-1.26 13.36-5.14 19.38-10.41 14.47-12.46 32.78-18.92 51.74-18.92v-64h-27c-17.66-5.89-28.99-12.13-39-28-3.47-7.43-6.16-14.53-6.07-22.75l.03-2.99.04-2.26c4.71-.13 9.41-.22 14.13-.28 1.59-.02 3.19-.06 4.78-.1 15.76-.42 28.5 2.16 41.09 12.38.58.43 1.16.86 1.76 1.31 4.17 3.2 5.97 6.12 9.24 10.69l1-80h-27c-9.94-2.4-17.13-5.6-25-12-.83-.62-1.65-1.24-2.5-1.88-9.32-7.9-15.06-19.25-17.5-31.12-.07-1.92-.09-3.84-.07-5.75l.03-2.99.04-2.26c4.71-.13 9.41-.22 14.13-.28 1.59-.02 3.19-.06 4.78-.1 15.8-.42 28.44 2.19 41.09 12.38.9.64 1.81 1.28 2.75 1.93 3.19 2.94 5.64 6.6 8.25 10.07l1-46-4-2c-9.86-9.84-16.1-23.49-16.38-37.45.04-16.98 5.35-30.95 17.14-43.38 2.97-2.89 5.6-5.15 9.24-7.17 7.73.64 13.4 7.01 18.18 12.62 10.23 13.39 13.27 27.95 11.82 44.38-2.35 12.53-8.54 24.37-18 33h-2l1 46c3.46-4.46 3.46-4.46 7-9 7.35-6.89 15.43-11.03 25-14 .55-.18 1.1-.37 1.67-.55 3.45-.67 6.88-.58 10.37-.55h2.34l7.37.03c1.66.01 3.33.01 5 .02 4.08.01 8.16.03 12.25.05.47 13.99-3.08 25.02-12 36-.63.83-1.26 1.66-1.9 2.52-7.98 9.4-19.56 14.18-31.1 17.48h-27l1 80 8-10c14.86-11.52 27.68-14.49 46.12-14.19 1.64.01 3.28.03 4.92.04 3.99.03 7.97.08 11.96.15.47 13.99-3.08 25.02-12 36-.63.83-1.25 1.66-1.89 2.52-8.13 9.54-19.45 13.98-31.11 17.48h-27v64l14 1c2.95.59 5.6 1.17 8.43 2.06.71.22 1.41.43 2.14.66 13.38 4.36 23.66 11.25 33.43 21.28l2.31 2.31c9.62 10.17 12.61 19.16 12.41 33.07 0 1.46 0 2.92.01 4.38 0 3.05-.02 6.1-.06 9.14-.05 3.88-.05 7.76-.03 11.64 0 3.01-.01 6.03-.03 9.04-.01 1.43-.01 2.86-.01 4.29.01 10.96-1.18 20.33-8.9 28.6-6.88 6.19-14.17 8.84-23.41 8.78-.76.01-1.52.01-2.3.01-2.55.01-5.11.01-7.66 0-1.84.01-3.69.01-5.53.02-5.08.01-10.15.01-15.23.01-5.47 0-10.94.01-16.42.02-10.72.01-21.44.02-32.16.02-8.72 0-17.44.01-26.15.01-20.69.02-41.37.03-62.05.03h-18.12c-20.95 0-41.9.01-62.84.04-23.54.03-47.07.05-70.61.04-12.46 0-24.92.01-37.38.03-10.61.02-21.22.02-31.83.01-5.41-.01-10.83-.01-16.24.01-4.96.02-9.91.01-14.87 0-1.79-.01-3.58 0-5.37.01-11.7.07-22.01-.42-31-8.81-5.86-6.52-8.74-13.55-8.87-22.34-.02-1.31-.05-2.61-.07-3.95-.01-1.41-.02-2.82-.04-4.23 0-.72-.01-1.44-.02-2.18-.03-3.81-.06-7.62-.07-11.42-.02-3.9-.07-7.8-.14-11.7-.05-3.03-.06-6.05-.07-9.08 0-1.44-.02-2.87-.05-4.31-.3-14.07 4.84-23.05 14.43-33.12 1.17-1.18 1.17-1.18 2.37-2.37 1.12-1.16 1.12-1.16 2.27-2.34 8.91-8.65 19.5-13.98 31.29-17.6.63-.2 1.27-.4 1.92-.61 4.58-1.28 9.06-1.7 13.8-2.01 1.26-.08 2.52-.17 3.81-.26.96-.06 1.92-.12 2.91-.18-.09-9.77-.18-19.55-.29-29.32-.05-4.53-.1-9.07-.14-13.61-.03-4.38-.08-8.77-.13-13.15-.02-1.67-.04-3.33-.05-5-.01-2.35-.04-4.69-.07-7.04-.01-.68-.01-1.36-.01-2.06-.13-7.4-1.46-14.05-6.31-19.82-5.16-4.08-9.53-4.69-16.06-4.45-5.27.8-8.97 2.97-12.28 7.13-4.96 7.93-3.93 17.73-4.01 26.73-.02 1.04-.05 2.08-.08 3.16-.01.94-.03 1.89-.04 2.86-.68 3.28-1.97 4.49-4.53 6.57-2 .53-2 .53-4 .5l-2 .03c-2.99-.79-4.1-2.12-6-4.53-.52-3.33-.52-3.33-.53-7.26-.01-.7-.01-1.41-.02-2.13 0-1.49.01-2.98.02-4.46.03-2.25.01-4.49-.02-6.74-.03-12.58 2.34-20.98 11.18-30.21 7.45-6.92 15.04-9.56 25.12-9.58.74-.02 1.49-.05 2.26-.07 4.56-.03 8.06.71 12.28 2.48.89.36 1.77.73 2.68 1.11.67.28 1.34.56 2.03.86.04-8.21.08-16.42.1-24.62.01-3.81.02-7.62.05-11.44.02-3.68.03-7.36.04-11.04 0-1.4.01-2.8.02-4.2.24-14.31.24-14.31-6.21-26.7-5.16-4.08-9.53-4.69-16.06-4.45-5.27.8-8.97 2.97-12.28 7.13-4.96 7.93-3.93 17.73-4.01 26.73-.02 1.04-.05 2.08-.08 3.16-.01.94-.03 1.89-.04 2.86-.68 3.28-1.97 4.49-4.53 6.57-2 .53-2 .53-4 .5l-2 .03c-2.99-.79-4.1-2.12-6-4.53-.52-3.33-.52-3.33-.53-7.26-.01-.7-.01-1.41-.02-2.13 0-1.49.01-2.98.02-4.46.03-2.25.01-4.49-.02-6.74-.03-12.58 2.34-20.98 11.18-30.21 7.45-6.92 15.04-9.56 25.12-9.58.74-.02 1.49-.05 2.26-.07 4.56-.03 8.06.71 12.28 2.48.89.36 1.77.73 2.68 1.11.67.28 1.34.56 2.03.86.05-7.83.08-15.66.11-23.49.01-2.66.02-5.32.04-7.98.02-3.84.03-7.67.04-11.5l.03-3.59c0-8.76-.34-16.44-6.22-23.44-5.16-4.08-9.53-4.69-16.06-4.45-5.27.8-8.97 2.97-12.28 7.13-4.96 7.93-3.93 17.73-4.01 26.73-.02 1.04-.05 2.08-.08 3.16-.01.94-.03 1.89-.04 2.86-.68 3.28-1.97 4.49-4.53 6.57-2 .53-2 .53-4 .5l-2 .03c-2.99-.79-4.1-2.12-6-4.53-.52-3.33-.52-3.33-.53-7.26-.01-.7-.01-1.41-.02-2.13 0-1.49.01-2.98.02-4.46.03-2.25.01-4.49-.02-6.74-.03-12.58 2.34-20.98 11.18-30.21 9-8.36 18.07-9.79 29.94-9.5 10.56.54 17.37 5.68 24.43 13.3 4.9 6.33 7.22 12.58 7.32 20.64.02 1.31.03 2.61.06 3.95l.03 4.21.06 4.35c.05 3.8.09 7.59.13 11.39.04 3.88.09 7.76.14 11.64.1 7.61.18 15.21.26 22.82 1-.43 1-.43 2.02-.86.89-.37 1.78-.73 2.69-1.11.88-.37 1.75-.73 2.65-1.11 3.91-1.37 7.52-1.53 11.64-1.42.78.01 1.56.03 2.37.04 10.44.38 16.88 3.87 24.43 11.09 6.56 7.07 9.5 14.33 9.53 24.03l.02 2.17c.01 1.5.02 3 .02 4.5 0 2.29.04 4.58.08 6.88 0 1.46.01 2.92.01 4.39.01.68.03 1.36.04 2.07-.03 3.38-.29 5.06-2.41 7.76-2.27 1.7-3.29 2.11-6.09 2.07-.99.01-.99.01-2 .03-2.92-.78-4.1-2.23-6-4.53-.52-2.53-.52-2.53-.54-5.36-.03-1.04-.05-2.07-.07-3.14l-.02-3.25c0-14.06 0-14.06-6.37-26.25-5.16-4.08-9.53-4.69-16.06-4.45-5.27.8-8.97 2.97-12.28 7.13-3.53 5.64-3.79 11.39-3.78 17.87v3.88c.01 1.39.01 2.77.02 4.15v4.28l.03 11.22c.01 3.82.01 7.64.02 11.46.01 7.49.03 14.97.05 22.46 1-.43 1-.43 2.02-.86.89-.37 1.78-.73 2.69-1.11.88-.37 1.75-.73 2.65-1.11 3.91-1.37 7.52-1.53 11.64-1.42.78.01 1.56.03 2.37.04 10.44.38 16.88 3.87 24.43 11.09 6.56 7.07 9.5 14.33 9.53 24.03l.02 2.17c.01 1.5.02 3 .02 4.5 0 2.29.04 4.58.08 6.88 0 1.46.01 2.92.01 4.39l.04 2.07c-.03 3.38-.29 5.06-2.41 7.76-2.27 1.7-3.29 2.11-6.09 2.07-.99.01-.99.01-2 .03-2.92-.78-4.1-2.23-6-4.53-.52-2.53-.52-2.53-.54-5.36-.03-1.04-.05-2.07-.07-3.14l-.02-3.25c0-14.06 0-14.06-6.37-26.25-5.16-4.08-9.53-4.69-16.06-4.45-5.27.8-8.97 2.97-12.28 7.13-3.71 5.93-3.81 12.19-3.87 18.97l-.03 2.25c-.03 2.44-.06 4.87-.08 7.31l-.06 5.08c-.06 4.45-.11 8.9-.16 13.35-.05 4.54-.1 9.09-.16 13.63-.1 8.91-.21 17.82-.3 26.73.67-.01 1.35-.02 2.05-.02.89-.01 1.78-.01 2.7-.02.88-.01 1.77-.01 2.68-.02 17.88.4 34.27 11.04 47.73 21.79 5.99 4.69 11.83 7.98 19.7 7.61 7.36-1.18 12.56-4.43 17.91-9.42 15.9-13.73 38.66-19.92 59.23-19.92v-64h-27c-17.66-5.89-28.99-12.13-39-28-3.47-7.43-6.16-14.53-6.07-22.75l.03-2.99.04-2.26c4.71-.13 9.41-.22 14.13-.28 1.59-.02 3.19-.06 4.78-.1 15.76-.42 28.5 2.16 41.09 12.38.58.43 1.16.86 1.76 1.31 2.81 2.16 4.9 4.46 6.9 7.34.66.94.66.94 1.34 1.9.33.48.66.96 1 1.45.04-11.86.08-23.72.1-35.57.01-5.51.02-11.02.05-16.52.02-5.32.03-10.64.04-15.95 0-2.03.01-4.05.02-6.08.01-2.84.01-5.69.01-8.53.01-1.25.01-1.25.03-2.52-.03-7.76-1.1-14.7-6.25-20.83-5.16-4.08-9.53-4.69-16.06-4.45-5.27.8-8.97 2.97-12.28 7.13-4.96 7.93-3.93 17.73-4.01 26.73l-.08 3.16c-.01.94-.03 1.89-.04 2.86-.68 3.28-1.97 4.49-4.53 6.57-2 .53-2 .53-4 .5-.99.01-.99.01-2 .03-2.99-.79-4.1-2.12-6-4.53-.52-3.33-.52-3.33-.53-7.26-.01-.7-.01-1.41-.02-2.13 0-1.49.01-2.98.02-4.46.03-2.25.01-4.49-.02-6.74-.03-12.58 2.34-20.98 11.18-30.21 7.45-6.92 15.04-9.56 25.12-9.58.74-.02 1.49-.05 2.26-.07 6.95-.04 9.87 1.6 16.99 4.45l1-34-4-2c-9.86-9.84-16.1-23.49-16.38-37.45.04-16.98 5.35-30.95 17.14-43.38 7.53-7.32 7.53-7.32 11.67-6.97Z"/><path fill="#6BB534" d="M424.434 24.203c9.5 2.95 16.78 12.66 21.33 21.05 6.51 13.61 8.85 27.92 4.61 42.68-3.57 9.92-8.51 18.9-16.37 26.07h-2l1 46c3.46-4.46 3.46-4.46 7-9 7.35-6.89 15.43-11.03 25-14 .55-.18 1.1-.37 1.67-.55 3.45-.67 6.88-.58 10.37-.55h2.34l7.37.03c1.66.01 3.33.01 5 .02 4.08.01 8.16.03 12.25.05.47 13.99-3.08 25.02-12 36-.63.83-1.26 1.66-1.9 2.52-7.98 9.4-19.56 14.18-31.1 17.48h-27l1 80 8-10c14.86-11.52 27.68-14.49 46.12-14.19 1.64.01 3.28.03 4.92.04 3.99.03 7.97.08 11.96.15.47 13.99-3.08 25.02-12 36-.63.83-1.25 1.66-1.89 2.52-8.13 9.54-19.45 13.98-31.11 17.48h-27v64h-16v-64h-27c-17.66-5.89-28.99-12.13-39-28-3.47-7.43-6.16-14.53-6.07-22.75l.03-2.99c.01-.75.02-1.49.04-2.26 4.71-.13 9.41-.22 14.13-.28 1.59-.02 3.19-.06 4.78-.1 15.76-.42 28.5 2.16 41.09 12.38.58.43 1.16.86 1.76 1.31 4.17 3.2 5.97 6.12 9.24 10.69l1-80h-27c-9.94-2.4-17.13-5.6-25-12-1.24-.93-1.24-.93-2.5-1.88-9.32-7.9-15.06-19.25-17.5-31.12-.07-1.92-.09-3.84-.07-5.75l.03-2.99c.01-.75.02-1.49.04-2.26 4.71-.13 9.41-.22 14.13-.28 1.59-.02 3.19-.06 4.78-.1 15.8-.42 28.44 2.19 41.09 12.38 1.36.96 1.36.96 2.75 1.93 3.19 2.94 5.64 6.6 8.25 10.07l1-46-4-2c-9.86-9.84-16.1-23.49-16.38-37.45.04-16.98 5.35-30.95 17.14-43.38 7.53-7.32 7.53-7.32 11.67-6.97Z"/><path fill="#7FBB38" d="M256.434 24.203c9.5 2.95 16.78 12.66 21.33 21.05 6.51 13.61 8.85 27.92 4.61 42.68-3.57 9.92-8.51 18.9-16.37 26.07h-2l1 34 10-4c3.16-.37 5.86-.58 9-.5.78.01 1.56.03 2.37.04 10.44.38 16.88 3.87 24.43 11.09 6.56 7.07 9.5 14.33 9.53 24.03l.02 2.17c.01 1.5.02 3 .02 4.5 0 2.29.04 4.58.08 6.88 0 1.46.01 2.92.01 4.39.01.68.03 1.36.04 2.07-.03 3.38-.29 5.06-2.41 7.76-2.27 1.7-3.29 2.11-6.09 2.07-.99.01-.99.01-2 .03-2.92-.78-4.1-2.23-6-4.53-.52-2.53-.52-2.53-.54-5.36-.03-1.04-.05-2.07-.07-3.14l-.02-3.25c0-14.06 0-14.06-6.37-26.25-5.16-4.08-9.53-4.69-16.06-4.45-5.27.8-8.97 2.97-12.28 7.13-3.79 6.06-3.81 12.41-3.78 19.34v2.37c0 2.56.01 5.13.02 7.69v5.36l.03 14.05c.01 4.79.01 9.58.02 14.36.01 9.38.03 18.77.05 28.15 1-.43 1-.43 2.02-.86.89-.37 1.78-.73 2.69-1.11.88-.37 1.75-.73 2.65-1.11 3.91-1.37 7.52-1.53 11.64-1.42.78.01 1.56.03 2.37.04 10.44.38 16.88 3.87 24.43 11.09 6.56 7.07 9.5 14.33 9.53 24.03l.02 2.17c.01 1.5.02 3 .02 4.5 0 2.29.04 4.58.08 6.88 0 1.46.01 2.92.01 4.39l.04 2.07c-.03 3.38-.29 5.06-2.41 7.76-2.27 1.7-3.29 2.11-6.09 2.07-.99.01-.99.01-2 .03-2.92-.78-4.1-2.23-6-4.53-.52-2.53-.52-2.53-.54-5.36-.03-1.04-.05-2.07-.07-3.14l-.02-3.25c0-14.06 0-14.06-6.37-26.25-5.16-4.08-9.53-4.69-16.06-4.45-5.27.8-8.97 2.97-12.28 7.13-3.71 5.93-3.81 12.19-3.87 18.97l-.03 2.25c-.03 2.44-.06 4.87-.08 7.31l-.06 5.08c-.06 4.45-.11 8.9-.16 13.35-.05 4.54-.1 9.09-.16 13.63-.1 8.91-.21 17.82-.3 26.73h-16v-64h-27c-17.66-5.89-28.99-12.13-39-28-3.47-7.43-6.16-14.53-6.07-22.75l.03-2.99c.01-.75.02-1.49.04-2.26 4.71-.13 9.41-.22 14.13-.28 1.59-.02 3.19-.06 4.78-.1 15.76-.42 28.5 2.16 41.09 12.38.58.43 1.16.86 1.76 1.31 2.81 2.16 4.9 4.46 6.9 7.34.44.63.88 1.26 1.34 1.9.33.48.66.96 1 1.45.04-11.86.08-23.72.1-35.57.01-5.51.02-11.02.05-16.52.02-5.32.03-10.64.04-15.95 0-2.03.01-4.05.02-6.08.01-2.84.01-5.69.01-8.53.01-1.25.01-1.25.03-2.52-.03-7.76-1.1-14.7-6.25-20.83-5.16-4.08-9.53-4.69-16.06-4.45-5.27.8-8.97 2.97-12.28 7.13-4.96 7.93-3.93 17.73-4.01 26.73-.02 1.04-.05 2.08-.08 3.16-.01.94-.03 1.89-.04 2.86-.68 3.28-1.97 4.49-4.53 6.57-2 .53-2 .53-4 .5l-2 .03c-2.99-.79-4.1-2.12-6-4.53-.52-3.33-.52-3.33-.53-7.26-.01-.7-.01-1.41-.02-2.13 0-1.49.01-2.98.02-4.46.03-2.25.01-4.49-.02-6.74-.03-12.58 2.34-20.98 11.18-30.21 7.45-6.92 15.04-9.56 25.12-9.58.74-.02 1.49-.05 2.26-.07 6.95-.04 9.87 1.6 16.99 4.45l1-34-4-2c-9.86-9.84-16.1-23.49-16.38-37.45.04-16.98 5.35-30.95 17.14-43.38 7.53-7.32 7.53-7.32 11.67-6.97Z"/><path fill="#F9B53B" d="M76.762 74.543c9.42 6.13 16.08 13.64 19.24 24.46.28 3.19.28 3.19.32 6.64l.06 3.95.03 4.21.06 4.35c.05 3.8.09 7.59.13 11.39.04 3.88.09 7.76.14 11.64.1 7.61.18 15.21.26 22.82.67-.29 1.34-.57 2.03-.86.88-.37 1.77-.73 2.68-1.11.88-.36 1.75-.73 2.66-1.11 3.91-1.37 7.52-1.53 11.63-1.42.78.01 1.56.03 2.37.04 10.44.38 16.89 3.88 24.43 11.09 6.56 7.07 9.5 14.33 9.53 24.03l.02 2.17c.01 1.5.02 3 .02 4.5 0 2.29.04 4.58.08 6.88 0 1.46.01 2.93.01 4.39.01.68.03 1.36.04 2.07-.03 3.38-.29 5.06-2.41 7.76-2.27 1.7-3.29 2.11-6.09 2.07-.99.01-.99.01-2 .03-2.91-.78-4.09-2.23-6-4.53-.52-2.53-.52-2.53-.54-5.36-.02-1.04-.05-2.07-.07-3.14l-.02-3.25c0-14.06 0-14.06-6.37-26.25-5.16-4.08-9.53-4.69-16.06-4.45-5.27.8-8.96 2.97-12.28 7.13-3.52 5.64-3.79 11.39-3.78 17.87v3.88c.01 1.39.02 2.77.02 4.15v4.28l.03 11.22c.01 3.82.01 7.64.02 11.46.01 7.49.03 14.97.05 22.46 1-.43 1-.43 2.03-.86.88-.37 1.77-.73 2.68-1.11.88-.36 1.75-.73 2.66-1.11 3.91-1.37 7.52-1.53 11.63-1.42.78.01 1.56.03 2.37.04 10.44.38 16.89 3.88 24.43 11.09 6.56 7.07 9.5 14.33 9.53 24.03l.02 2.17c.01 1.5.02 3 .02 4.5 0 2.29.04 4.58.08 6.88 0 1.46.01 2.93.01 4.39.01.68.03 1.36.04 2.07-.03 3.38-.29 5.06-2.41 7.76-2.27 1.7-3.29 2.11-6.09 2.07-.99.01-.99.01-2 .03-2.91-.78-4.09-2.23-6-4.53-.52-2.53-.52-2.53-.54-5.36-.02-1.04-.05-2.07-.07-3.14l-.02-3.25c0-14.06 0-14.06-6.37-26.25-5.16-4.08-9.53-4.69-16.06-4.45-5.27.8-8.96 2.97-12.28 7.13-3.7 5.93-3.81 12.19-3.87 18.97l-.03 2.25c-.03 2.44-.05 4.87-.08 7.31l-.06 5.08c-.06 4.45-.11 8.9-.15 13.35-.05 4.54-.11 9.09-.17 13.63l-.3 26.73h-16l-.06-6.85c-.07-7.49-.15-14.98-.23-22.47-.05-4.53-.1-9.07-.13-13.61-.04-4.38-.09-8.77-.14-13.15-.02-1.67-.03-3.33-.05-5-.01-2.35-.04-4.69-.07-7.04-.01-.68-.01-1.36-.01-2.06-.13-7.4-1.45-14.05-6.31-19.82-5.16-4.08-9.53-4.69-16.06-4.45-5.27.8-8.96 2.97-12.28 7.13-4.95 7.93-3.92 17.73-4 26.73l-.09 3.16c-.01.94-.03 1.89-.04 2.87-.68 3.27-1.97 4.48-4.53 6.56-2 .53-2 .53-4 .5l-2 .03c-2.98-.79-4.1-2.12-6-4.53-.52-3.33-.52-3.33-.53-7.26-.01-.7-.01-1.41-.01-2.13-.01-1.49 0-2.98.02-4.46.02-2.25 0-4.49-.03-6.74-.03-12.58 2.35-20.98 11.18-30.21 7.46-6.92 15.04-9.56 25.12-9.58.75-.02 1.49-.05 2.26-.07 4.56-.03 8.06.71 12.28 2.48.89.36 1.77.73 2.69 1.11.66.28 1.33.57 2.02.86.04-8.21.08-16.42.1-24.62.01-3.81.03-7.62.05-11.44.02-3.68.03-7.36.04-11.04 0-1.4.01-2.8.02-4.2.24-14.31.24-14.31-6.21-26.7-5.16-4.08-9.53-4.69-16.06-4.45-5.27.8-8.96 2.97-12.28 7.13-4.95 7.93-3.92 17.73-4 26.73l-.09 3.16c-.01.94-.03 1.89-.04 2.87-.68 3.27-1.97 4.48-4.53 6.56-2 .53-2 .53-4 .5l-2 .03c-2.98-.79-4.1-2.12-6-4.53-.52-3.33-.52-3.33-.53-7.26-.01-.7-.01-1.41-.01-2.13-.01-1.49 0-2.98.02-4.46.02-2.25 0-4.49-.03-6.74-.03-12.58 2.35-20.98 11.18-30.21 7.46-6.92 15.04-9.56 25.12-9.58.75-.02 1.49-.05 2.26-.07 4.56-.03 8.06.71 12.28 2.48.89.36 1.77.73 2.69 1.11.66.28 1.33.57 2.02.86.05-7.83.08-15.66.11-23.49.01-2.66.02-5.32.04-7.98.02-3.84.03-7.67.04-11.5l.03-3.59c.01-8.76-.34-16.44-6.22-23.44-5.16-4.08-9.53-4.69-16.06-4.45-5.27.8-8.96 2.97-12.28 7.13-4.95 7.93-3.92 17.73-4 26.73l-.09 3.16c-.01.94-.03 1.89-.04 2.87-.68 3.27-1.97 4.48-4.53 6.56-2 .53-2 .53-4 .5l-2 .03c-2.98-.79-4.1-2.12-6-4.53-.52-3.33-.52-3.33-.53-7.26-.01-.7-.01-1.41-.01-2.13-.01-1.49 0-2.98.02-4.46.02-2.25 0-4.49-.03-6.74-.03-12.58 2.35-20.98 11.18-30.21 10.82-10.04 28.54-13.3 42.13-6.66Z"/><path fill="#5EB131" d="m248 182 5 5c4.14.58 5.48.35 9-2l2-3 1 78 10-4c3.16-.37 5.87-.58 9-.5.78.01 1.56.03 2.37.04 10.44.38 16.89 3.88 24.43 11.09 6.56 7.07 9.5 14.34 9.54 24.03l.02 2.17c.01 1.5.01 3 .01 4.5.01 2.3.04 4.59.08 6.88.01 1.46.01 2.93.01 4.39.02.68.03 1.37.04 2.07-.03 3.38-.29 5.06-2.4 7.76-2.28 1.7-3.3 2.11-6.1 2.07-.99.02-.99.02-2 .03-2.91-.77-4.09-2.23-6-4.53-.51-2.53-.51-2.53-.54-5.36-.02-1.03-.05-2.07-.07-3.13-.01-1.61-.01-1.61-.01-3.26-.01-14.06-.01-14.06-6.38-26.25-5.16-4.08-9.52-4.69-16.06-4.45-5.26.8-8.96 2.97-12.28 7.13-3.7 5.93-3.81 12.19-3.87 18.98l-.03 2.25c-.03 2.43-.05 4.87-.08 7.3l-.06 5.09-.15 13.34c-.05 4.55-.11 9.09-.16 13.64-.11 8.9-.21 17.81-.31 26.72h-16v-64h-27c-17.65-5.88-28.99-12.12-39-28-3.47-7.42-6.16-14.52-6.06-22.75.01-.98.02-1.97.02-2.98.02-.75.03-1.5.04-2.27 4.71-.13 9.42-.22 14.13-.27 1.59-.03 3.19-.06 4.78-.11 15.76-.42 28.5 2.16 41.09 12.38.58.43 1.17.87 1.77 1.31 4.16 3.2 5.97 6.12 9.23 10.69l1-90Z"/><path fill="#FECB3D" d="M244.875 146.578c3.9 2.61 7.06 5.89 10.12 9.42 3.95-1.75 6.55-4.27 9.61-7.24 5.9-4.33 12.09-5.29 19.27-5.2 1.19.02 1.19.02 2.4.03 10.5.32 16.93 3.78 24.53 11.04 6.56 7.08 9.5 14.34 9.53 24.04l.02 2.16c.01 1.5.02 3 .02 4.5 0 2.3.04 4.59.07 6.88.01 1.47.01 2.93.02 4.39.01.69.02 1.37.04 2.07-.03 3.39-.29 5.06-2.41 7.76-2.27 1.7-3.29 2.12-6.1 2.07-.99.02-.99.02-2 .03-2.91-.77-4.09-2.23-6-4.53-.51-2.53-.51-2.53-.53-5.36-.03-1.03-.05-2.07-.07-3.13l-.02-3.26c0-14.06 0-14.06-6.38-26.25-5.15-4.08-9.52-4.69-16.05-4.44-5.24.79-8.92 2.94-12.25 7.05-1.91 3.04-2.94 6.03-3.76 9.52-.86 3.58-1.78 5.91-3.94 8.87-2.8 1.41-4.88 1.25-8 1-3.7-1.95-4.77-4.07-6-8-.29-1.31-.58-2.62-.87-3.94-1.35-5.47-3.67-8.91-8.13-12.43-5.05-2.58-10.49-2.46-16-1.63-4.63 1.7-7.82 4.25-10.43 8.44-3.46 7.88-2.83 16.5-2.91 24.97-.02 1.04-.05 2.09-.08 3.16-.02.95-.03 1.89-.04 2.87-.68 3.28-1.97 4.48-4.54 6.56-1.99.53-1.99.53-4 .5l-2 .03c-2.98-.79-4.09-2.11-6-4.53-.51-3.32-.51-3.32-.53-7.26 0-.7 0-1.4-.01-2.13 0-1.48.01-2.97.02-4.46.02-2.25 0-4.49-.02-6.73-.03-12.59 2.34-20.98 11.17-30.22 10.94-10.14 28.53-13.19 42.25-6.62Z"/><path fill="#7FBB38" d="M344 136c4.71-.13 9.42-.22 14.13-.27 1.59-.03 3.19-.06 4.78-.11 15.81-.42 28.44 2.19 41.09 12.38.89.62 1.77 1.24 2.69 1.88 5.43 4.99 9.59 8.96 9.98 16.74.03 3.49-.08 6.96-.23 10.44-.04 1.45-.07 2.91-.1 4.36-.07 3.53-.2 7.05-.34 10.58-19.8.7-35.94 1.05-52-12-.82-.62-1.64-1.24-2.49-1.88-9.33-7.9-15.07-19.25-17.51-31.12-.07-1.92-.09-3.83-.06-5.75.01-.98.02-1.97.02-2.98.02-.75.03-1.5.04-2.27Z"/><path fill="#F5A438" d="M303 260c8.31 6.25 14.11 12.95 17 23 .21 2.59.33 5.07.34 7.66l.02 2.17c.01 1.5.01 3 .01 4.5.01 2.3.04 4.59.08 6.88.01 1.46.01 2.93.01 4.39.02.68.03 1.37.04 2.07-.03 3.38-.29 5.06-2.4 7.76-2.28 1.7-3.3 2.11-6.1 2.07-.99.02-.99.02-2 .03-2.91-.77-4.09-2.23-6-4.53-.51-2.53-.51-2.53-.54-5.36-.02-1.03-.05-2.07-.07-3.13-.01-1.61-.01-1.61-.01-3.26-.01-14.06-.01-14.06-6.38-26.25-5.16-4.08-9.52-4.69-16.06-4.45-5.23.8-8.91 2.95-12.24 7.06-1.92 3.04-2.94 6.03-3.76 9.51-.87 3.59-1.79 5.92-3.94 8.88-2.89 1.44-4.8 1.38-8 1-2.94-1.98-4.68-3.45-5.41-7.02-.39-10.12 4.04-18.76 10.38-26.34 10.95-11.82 30.83-15.88 45.03-6.64Z"/><path fill="#FFCB3D" d="M59.75 159.625h2.4c6.13.11 13.27.8 17.85 5.38.09 2.29.11 4.58.1 6.87 0 .69-.01 1.38-.01 2.08 0 2.21-.01 4.41-.03 6.61 0 1.49-.01 2.98-.01 4.46-.01 3.66-.03 7.32-.05 10.98h-1c-.25-1.2-.5-2.4-.75-3.63-1.43-5.59-3.68-9.13-8.25-12.75-5.06-2.58-10.49-2.46-16-1.62-4.64 1.69-7.82 4.25-10.44 8.43-3.45 7.88-2.83 16.51-2.9 24.98l-.09 3.16c-.01.94-.02 1.89-.04 2.86-.68 3.28-1.97 4.49-4.53 6.57-2 .53-2 .53-4 .5l-2 .03c-2.98-.8-4.1-2.12-6-4.53-.52-3.33-.52-3.33-.53-7.26-.01-.71-.01-1.41-.01-2.13-.01-1.49 0-2.98.02-4.47.02-2.24 0-4.49-.03-6.73-.02-12.58 2.35-20.98 11.18-30.22 7.44-6.9 15.05-9.59 25.12-9.57Z"/><path fill="#946143" d="M261.148 426.031c5.61 2.93 8.86 8.13 10.85 13.97 1.16 5.49.12 9.42-2.56 14.31-3.41 5.18-6.66 7.27-12.44 9.44-7.51.94-12.81-.38-19-4.75-3.98-4.58-5.66-9.17-6.37-15.13.58-6.03 2.67-11.57 7.38-15.59 7.29-4.64 14.04-5.63 22.14-2.25Z"/><path fill="#5EB132" d="M248 114c.47.37.95.73 1.44 1.11.62.47 1.25.94 1.89 1.43.93.7.93.7 1.88 1.42 1.85 1.34 1.85 1.34 4.48.48L260 117c1.33-.68 2.66-1.34 4-2 .17 4.86.3 9.71.38 14.57.04 1.65.09 3.3.15 4.95.49 13.75.49 13.75-2.12 18.16-1.72 1.72-3.32 3.08-5.41 4.32-3.88-1.58-6.41-3.71-9-7-.44-2.99-.59-5.39-.49-8.36.01-.8.02-1.59.02-2.4.03-2.52.09-5.04.16-7.55.02-1.71.05-3.43.07-5.14.05-4.18.14-8.37.24-12.55Z"/><path fill="#946143" d="M455 440c4.09 1.81 6.66 4.19 9 8 .63 5.03.03 7.96-3 12-2.75 3.21-5.03 3.87-9.25 4.44-4.93-.58-7.55-2.72-10.75-6.44-1.24-3.71-1.46-6.1-1-10 4.08-6.36 7.34-8.52 15-8ZM79 416c4.09 1.81 6.66 4.19 9 8 .63 5.03.03 7.96-3 12-2.75 3.21-5.03 3.87-9.25 4.44-4.93-.58-7.55-2.72-10.75-6.44-1.24-3.71-1.46-6.1-1-10 4.08-6.36 7.34-8.52 15-8Z"/><path fill="#C69B82" d="M160 447.375c4.15.86 5.61 2.14 8 5.62.38 2.92.06 5.27-1 8-2.12 2.07-2.12 2.07-5 3-3.78-.06-6.05-.17-8.94-2.68-1.42-3.1-1.61-4.94-1.06-8.32 2.46-3.32 3.93-4.77 8-5.62ZM376 431.375c4.15.86 5.61 2.14 8 5.62.38 2.92.06 5.27-1 8-2.12 2.07-2.12 2.07-5 3-3.78-.06-6.05-.17-8.94-2.68-1.42-3.1-1.61-4.94-1.06-8.32 2.46-3.32 3.93-4.77 8-5.62Z"/></svg>